<svg width="25" height="26" viewBox="0 0 25 26" fill="none" xmlns="http://www.w3.org/2000/svg">
<path d="M10.8643 3.7666L11.9482 2.68262C12.4072 2.22363 13.1494 2.22363 13.6035 2.68262L23.0957 12.1699C23.5547 12.6289 23.5547 13.3711 23.0957 13.8252L13.6035 23.3174C13.1445 23.7764 12.4023 23.7764 11.9482 23.3174L10.8643 22.2334C10.4004 21.7695 10.4102 21.0127 10.8838 20.5586L16.7676 14.9531H2.73438C2.08496 14.9531 1.5625 14.4307 1.5625 13.7813V12.2188C1.5625 11.5693 2.08496 11.0469 2.73438 11.0469H16.7676L10.8838 5.44141C10.4053 4.9873 10.3955 4.23047 10.8643 3.7666Z" fill="black"/>
</svg>
